<?xml version="1.0" encoding="utf-8"?>
<svg height="46px" viewBox="0 0 46 46" width="46px" xmlns="http://www.w3.org/2000/svg">
  <path d="M 14.667 1 L 14.667 22.541 C 13.338 21.923 11.824 21.533 10.267 21.533 C 4.63 21.533 0 26.162 0 31.8 C 0 37.438 4.63 42.067 10.267 42.067 C 15.869 42.067 20.477 37.484 20.533 31.892 C 20.533 31.858 20.533 31.834 20.533 31.8 L 20.533 9.8 L 38.133 9.8 L 38.133 22.541 C 36.805 21.923 35.292 21.533 33.733 21.533 C 28.095 21.533 23.467 26.162 23.467 31.8 C 23.467 37.438 28.095 42.067 33.733 42.067 C 39.303 42.067 43.896 37.53 44 31.984 C 44 31.914 44 31.868 44 31.8 L 44 1 L 14.667 1 Z M 14.667 1" style="fill: rgb(131, 131, 131);"/>
</svg>