<?xml version="1.0" encoding="utf-8"?>
<svg height="16px" viewBox="0 0 16 16" width="16px" xmlns="http://www.w3.org/2000/svg">
  <path d="M 8 0.5 C 3.871 0.5 0.5 3.871 0.5 8 C 0.5 12.128 3.871 15.5 8 15.5 C 12.128 15.5 15.5 12.128 15.5 8 C 15.5 3.871 12.128 0.5 8 0.5 Z M 9.844 2.812 C 10.796 3.149 11.625 3.739 12.25 4.5 L 11.024 4.5 C 10.718 3.891 10.324 3.32 9.844 2.812 Z M 6.125 2.824 C 5.652 3.333 5.257 3.895 4.954 4.5 L 3.75 4.5 C 4.368 3.746 5.187 3.165 6.125 2.824 Z M 7.5 2.921 L 7.5 4.5 L 6.101 4.5 C 6.465 3.906 6.93 3.371 7.5 2.921 Z M 8.5 2.939 C 9.059 3.382 9.52 3.915 9.878 4.5 L 8.5 4.5 L 8.5 2.939 Z M 3.097 5.5 L 4.538 5.5 C 4.324 6.145 4.191 6.82 4.148 7.5 L 2.524 7.5 C 2.586 6.785 2.79 6.109 3.097 5.5 Z M 5.606 5.5 L 7.5 5.5 L 7.5 7.5 L 5.156 7.5 C 5.204 6.816 5.351 6.141 5.606 5.5 Z M 8.5 5.5 L 10.375 5.5 C 10.628 6.141 10.777 6.816 10.825 7.5 L 8.5 7.5 L 8.5 5.5 Z M 11.441 5.5 L 12.903 5.5 C 13.211 6.109 13.414 6.785 13.477 7.5 L 11.832 7.5 C 11.79 6.82 11.656 6.145 11.441 5.5 Z M 2.524 8.5 L 4.148 8.5 C 4.196 9.18 4.324 9.855 4.544 10.5 L 3.097 10.5 C 2.79 9.891 2.586 9.215 2.524 8.5 Z M 5.156 8.5 L 7.5 8.5 L 7.5 10.5 L 5.61 10.5 C 5.355 9.862 5.208 9.184 5.156 8.5 Z M 8.5 8.5 L 10.825 8.5 C 10.774 9.184 10.625 9.862 10.371 10.5 L 8.5 10.5 L 8.5 8.5 Z M 11.832 8.5 L 13.477 8.5 C 13.414 9.215 13.211 9.891 12.903 10.5 L 11.437 10.5 C 11.656 9.855 11.786 9.18 11.832 8.5 Z M 3.75 11.5 L 4.961 11.5 C 5.273 12.109 5.673 12.68 6.156 13.189 C 5.204 12.851 4.375 12.262 3.75 11.5 Z M 6.113 11.5 L 7.5 11.5 L 7.5 13.051 C 6.937 12.608 6.472 12.082 6.113 11.5 Z M 8.5 11.5 L 9.867 11.5 C 9.513 12.079 9.055 12.599 8.5 13.035 L 8.5 11.5 Z M 11.02 11.5 L 12.25 11.5 C 11.617 12.27 10.777 12.862 9.813 13.195 C 10.305 12.689 10.707 12.112 11.02 11.5 Z M 11.02 11.5" style=""/>
</svg>