<svg xmlns="http://www.w3.org/2000/svg" width="496" height="496"><path d="M396.444 16.785c-96.2 0-114.26 137.018-60.142 137.018 54.11 0 156.347-137.018 60.142-137.018M247.84 33.573c-1.528-.005-3.168.058-4.86.29-54.139 7.027-35.102 101.172-6.275 102.931 27.915 1.708 58.49-103.05 11.135-103.214zm-93.83 37.25c-2.863.058-5.985.747-9.384 2.148-43.514 17.955-6.628 92.032 17.749 87.048 22.49-4.584 25.404-89.944-8.366-89.196zm-69.357 58.05c-3.783 0-7.853 1.187-12.21 4.185-34.832 24.067 11.726 82.215 32.22 73.2 17.932-7.895 6.473-76.494-20.01-77.385m198.967 44.543c-74.677-1.274-173.18 36.178-189.98 111.41-18.194 81.419 74.874 194.389 172.005 194.389 47.784 0 102.908-43.189 113.22-97.846 7.875-41.68-92.697-24.982-89.084 2.605 4.33 33.059-24.239 49.404-52.228 28.092-89.104-67.84 147.526-101.7 131.928-194.386-4.855-28.85-41.054-43.503-85.86-44.259z" style="fill:#ccc;fill-opacity:1;stroke-width:28.9407"/></svg>