<?xml version="1.0" encoding="UTF-8"?>
<svg xmlns="http://www.w3.org/2000/svg" height="16px" viewBox="0 0 16 16" width="16px"><g fill="#222222"><path d="m 8 0 c -4.410156 0 -8 3.589844 -8 8 s 3.589844 8 8 8 s 8 -3.589844 8 -8 s -3.589844 -8 -8 -8 z m 0 2 c 3.332031 0 6 2.667969 6 6 s -2.667969 6 -6 6 s -6 -2.667969 -6 -6 s 2.667969 -6 6 -6 z m 0 7.875 c -0.621094 0 -1.125 0.503906 -1.125 1.125 s 0.503906 1.125 1.125 1.125 s 1.125 -0.503906 1.125 -1.125 s -0.503906 -1.125 -1.125 -1.125 z m 0 0"/><path d="m 7 4 h 2 v 5 h -2 z m 0 0"/></g></svg>
